<?xml version="1.0" encoding="UTF-8" standalone="no"?>
<!-- Created with Inkscape (http://www.inkscape.org/) -->

<svg
   viewBox="0 0 451.70909 402.1136"
   version="1.1"
   id="svg1"
   sodipodi:docname="logo.svg"
   inkscape:version="1.4 (e7c3feb1, 2024-10-09)"
   xmlns:inkscape="http://www.inkscape.org/namespaces/inkscape"
   xmlns:sodipodi="http://sodipodi.sourceforge.net/DTD/sodipodi-0.dtd"
   xmlns="http://www.w3.org/2000/svg"
   xmlns:svg="http://www.w3.org/2000/svg">
  <sodipodi:namedview
     id="namedview1"
     pagecolor="#ffffff"
     bordercolor="#000000"
     borderopacity="0.25"
     inkscape:showpageshadow="2"
     inkscape:pageopacity="0.0"
     inkscape:pagecheckerboard="0"
     inkscape:deskcolor="#d1d1d1"
     inkscape:document-units="mm"
     inkscape:zoom="2.4453471"
     inkscape:cx="162.75808"
     inkscape:cy="382.56328"
     inkscape:window-width="1512"
     inkscape:window-height="916"
     inkscape:window-x="0"
     inkscape:window-y="38"
     inkscape:window-maximized="0"
     inkscape:current-layer="svg1" />
  <defs
     id="defs1" />
  <g
     id="layer1"
     transform="translate(-202.80396,-355.47071)">
    <path
       style="display:inline;fill:#fa7e4a;stroke:#163955;stroke-width:15;stroke-linecap:round;stroke-miterlimit:10;stroke-dasharray:none;stroke-opacity:1"
       d="m 414.03948,694.09216 c 10.7041,-9.63317 40.7705,-19.55661 40.7705,-19.55661 l 36.89207,22.21971 c 0,0 -28.51674,32.9238 -51.46731,42.42812 -72.68184,30.09908 -68.05151,-7.42251 -26.19526,-45.09122 z"
       id="path7"
       sodipodi:nodetypes="sccss" />
    <path
       style="display:inline;fill:#fa7e4a;stroke:#163955;stroke-width:15;stroke-linecap:round;stroke-miterlimit:10;stroke-dasharray:none;stroke-opacity:1"
       d="m 328.56996,435.78752 c -8.85073,16.36039 8.9395,40.78122 22.63773,52.29457 10.7041,8.99677 47.11132,13.41941 47.11132,13.41941 l 36.89207,-20.75178 c 0,0 -26.78742,-41.51586 -49.73799,-50.39229 -16.36389,-6.32895 -50.76467,-5.91675 -56.90313,5.43009 z"
       id="path6" />
    <path
       style="display:inline;fill:#fa7e4a;stroke:none;stroke-width:15;stroke-linecap:round;stroke-miterlimit:10;stroke-dasharray:none;stroke-opacity:1"
       d="m 563.32455,579.40161 c 0,0 16.89037,10.81626 35.30749,10.92043 18.42589,0.10422 32.79319,-5.12263 42.98253,-12.11169 25.92348,-17.78141 -43.57463,-143.91707 -165.60804,-142.31714 -124.09605,1.62697 -182.1821,112.28668 -182.1821,112.28668 0,0 -19.36527,-22.00915 -38.79976,-33.36959 -13.67815,-7.99556 -38.67482,-21.02204 -43.42724,-13.77388 -4.75242,7.24816 5.91991,35.05932 12.24592,50.46303 5.91504,14.40301 23.38579,37.79393 23.38579,37.79393 0,0 -18.12989,26.01601 -24.3599,41.90187 -5.5008,14.02645 -15.00163,41.10045 -11.27181,46.3551 3.72982,5.25465 26.99089,-0.35129 45.08063,-13.20793 18.31831,-13.01909 37.69455,-40.51371 37.69455,-40.51371 0,0 63.0176,95.95465 177.34904,94.4464 133.37803,-1.75951 167.8192,-138.57134 167.8192,-138.57134"
       id="path4" />
    <path
       style="display:inline;fill:#fdf2db;fill-opacity:1;stroke:none;stroke-width:15;stroke-linecap:round;stroke-miterlimit:10;stroke-dasharray:none;stroke-opacity:1"
       d="m 294.37261,623.82871 c 0,0 9.88157,15.04631 28.91798,33.12897 29.0368,27.582 79.3735,62.22843 148.43106,61.31743 133.37803,-1.75951 167.8192,-138.57134 167.8192,-138.57134 0,0 -23.24117,10.02094 -35.62248,10.74184 -14.93953,0.86985 -44.19658,-7.88532 -44.19658,-7.88532 0,0 -32.08402,39.74698 -122.25885,58.83261 -75.00744,15.87543 -143.09033,-17.56419 -143.09033,-17.56419 z"
       id="path40" />
    <path
       style="display:inline;fill:none;stroke:#163955;stroke-width:15;stroke-linecap:round;stroke-miterlimit:10;stroke-dasharray:none;stroke-opacity:1"
       d="m 563.32455,579.40161 c 0,0 16.89037,10.81626 35.30749,10.92043 18.42589,0.10422 32.79319,-5.12263 42.98253,-12.11169 25.92348,-17.78141 -43.57463,-143.91707 -165.60804,-142.31714 -124.09605,1.62697 -182.1821,112.28668 -182.1821,112.28668 0,0 -19.36527,-22.00915 -38.79976,-33.36959 -13.67815,-7.99556 -38.67482,-21.02204 -43.42724,-13.77388 -4.75242,7.24816 5.91991,35.05932 12.24592,50.46303 5.91504,14.40301 23.38579,37.79393 23.38579,37.79393 0,0 -18.12989,26.01601 -24.3599,41.90187 -5.5008,14.02645 -15.00163,41.10045 -11.27181,46.3551 3.72982,5.25465 26.99089,-0.35129 45.08063,-13.20793 18.31831,-13.01909 37.69455,-40.51371 37.69455,-40.51371 0,0 63.0176,95.95465 177.34904,94.4464 133.37803,-1.75951 167.8192,-138.57134 167.8192,-138.57134"
       id="path41" />
    <path
       d="m 461.16017,362.97071 c -55.06553,0.084 -99.87339,46.47475 -100.62696,104.1836 -0.0357,0.31838 -0.0705,0.63636 -0.10351,0.95508 -2.00171,0.84889 -3.95018,1.81001 -5.83789,2.875 -1.75057,1.16981 -3.51293,2.32303 -5.22071,3.55078 -8.63596,6.66108 -14.9343,15.52615 -18.39648,25.41015 -1.91711,5.47306 -2.99378,11.24813 -3.04688,17.15821 3e-4,30.42624 25.54114,55.09191 57.04688,55.0918 11.0826,-0.12469 21.88683,-3.36528 31.09375,-9.32422 9.40573,-6.05703 16.73647,-14.67615 21.06055,-24.76368 3.04517,-6.6225 4.70801,-13.75998 4.89257,-21.0039 -0.0361,-24.9601 -17.44519,-46.77906 -42.42773,-53.17578 0.4424,-4.34719 1.33308,-8.60461 2.45703,-12.78516 0.3149,-1.17127 0.55457,-2.36662 0.92188,-3.51953 9.0835,-28.38736 32.74186,-47.37511 59.33593,-47.62305 24.45582,0.0321 47.15989,16.53317 57.26954,40.91992 15.07178,3.74543 28.97688,9.4316 41.67969,16.34571 -0.0183,-0.19613 -0.0118,-0.3325 -0.0312,-0.53125 -5.23753,-53.61131 -48.81544,-93.72281 -100.06641,-93.76368 z"
       style="display:inline;fill:#fffbf0;stroke:#163955;stroke-width:15;stroke-miterlimit:10"
       id="path39" />
    <path
       style="display:inline;fill:#fa7e4a;fill-opacity:1;stroke:#163955;stroke-width:15;stroke-linecap:round;stroke-miterlimit:10;stroke-dasharray:none;stroke-opacity:1"
       d="m 416.961,604.59345 c 0,0 -16.44334,19.70906 -20.55966,30.70152 -3.68086,9.82958 -7.44368,29.13277 -1.15705,33.57998 10.0146,7.0844 42.74696,-5.72743 56.72966,-18.00829 22.67542,-19.9156 23.42109,-55.374 23.42109,-55.374"
       id="path16" />
    <ellipse
       style="display:inline;fill:#163955;fill-opacity:1;stroke:none;stroke-width:15;stroke-linecap:round;stroke-miterlimit:10;stroke-dasharray:none;stroke-opacity:1"
       id="path8"
       cx="534.72205"
       cy="532.82019"
       rx="15.224101"
       ry="17.710094" />
  </g>
</svg>
